<svg viewBox="0 0 1140 280" fill="none" alt="Genero">
    <g>
        <path d="M1125.5 110c-10.2-11.3-24.3-17.3-40.79-17.3-21 0-44.2 7.8-63.3 21.1-3.6 1.9-7.8 3.8-13.1 3.8-10.6 0-12.2-4-14.3-9.1-2.4-6-5.2-12.9-22.1-12.9-23.2 0-48 22.2-61.29 34.2-3.5 3.1-7.1 6.4-8.4 7.2 0-4.1 1.5-8.4 3.1-13 1.7-4.9 3.5-10 3.5-15.3 0-9.2-3.5-15.4-20.5-15.7-10.8-.2-20.9 7.4-29.1 13.6-3.8 2.9-7.7 5.8-11.5 8.6-19.4 14.4-34.9 33.4-53.79 48.5-20.7 16.7-48.6 34.3-76.5 30-3.6-.6-6.7-1.9-9.2-4l5.4-1.7c19.1-6.1 39.8-14.1 58.3-27.5 9.6-7 26.3-21.4 29.3-39.7 1.5-8.9-.8-16-6.9-21-17.4-14.4-61.4-6.4-76.6-.7-29.39 10.9-60.69 38.3-64.49 74.7 0 .2 0 .5-.1.7l-10.6 3c-.6.2-1 .3-1.4.4-4.6 1.4-10.5 2.8-13.4 2.8-3 0-5-1-6.1-3.2-.8-1.5-1.2-3.6-1.2-6.2 0-5.3 1.4-9.7 2.8-14.3 1.6-5.1 3.3-10.3 3.2-17.3 0-6.9-2.9-11.9-8.5-15-4.3-2.3-9.9-3.4-17.5-3.4-18.2.1-42.29 15.2-58.29 25.2-5.8 3.7-11.9 7.4-13.3 7.5-.1 0-.5-.1-.7-.2-.2-.2-.4-.7-.4-1.1.1-1.7 1.1-4.8 2.4-8.4 2.2-6.4 4.8-14.4 4.8-21.9 0-5.9-2.1-10.9-5.9-14.3-5.1-4.6-13.2-6.4-24.1-5.3-12.6 1.2-22.8 10.9-56.59 43l-.3.3c-15.9 16.7-38.4 31.8-63.3 42.6-10.8 4.7-22.9 6.3-33.1 4.4-3.99-.7-7.19-2.3-9.69-4.9l5.9-.9c21.7-3.7 41.2-13.3 58.7-27.2 17.4-13.8 26.9-26.9 28.9-39.9 1.4-9-1-16-7-20.9-17.6-14.2-61.1-7.5-76.2-1.8-17.8 6.8-35.8 19.2-48.3 36-1.7-4.4-4.9-8.2-9.4-10.5-5.9-2.9-11.4-3.6-16.2-2-3.1 1.1-5.9 3.1-8.3 6-.7.9-1.4 1.9-2.1 2.9a200.1 200.1 0 0 1-29.2 31.4c-18.09 15.7-46.89 34.5-81.38 34.7-6.3 0-11.4-1.9-15.2-5.8-5.6-5.8-7.4-14.8-7.2-21.3.2-5.4 1.2-11.4 2.9-17.7 22.8-3.5 54.8-10.6 85.09-21.7 74.8-27.4 91.5-61.3 92.3-84.9.6-22-11.9-44.6-41.6-44.6-50.6 0-100 23-139 64.7a234.62 234.62 0 0 0-36.89 52.1c-27.5-2-39.7-11-39.1-28.5.3-8.8 3.8-16.8 7.1-24.5 3.1-7 5.9-13.6 6.2-20.3.3-8.1-6-11.9-19.7-11.9C24.5 31.6 1.1 55.2.1 84.2c-1.4 40.6 26.6 63.7 83.3 69-2.4 8.8-3.7 17.3-4 25.3-.7 21.3 8.6 57.1 79.69 57.1 24.8 0 53.5-11.6 70.19-23.4-.7 1.8-2.2 6.1-2.9 7.9-2 5.3-3.7 10.9-5.3 16.1l-2.3 8.6-1.8 9.3-.1.6c-2 12.2 6.2 23.5 18.4 25.1 1 .1 2 .2 2.9.2 11 0 20.9-8.2 22.8-19.4l1.3-7.6 1.5-6.4c1.1-4.1 2.4-8.7 4.1-13.5 2.8-8.6 6.3-17.9 10.3-27.6 3.1-7.7 6.4-15.3 9.7-22.8.7 9.1 4 17.1 9.8 23.8 11 12.8 30.5 20.4 53.59 20.9 23.4.5 48-6.5 72.6-23.6 1.2-.8 2.4-1.7 3.7-2.6 5.8-3.9 12.3-8.4 17.8-13.4l.8-.7c4.2-3.6 11.09-10.1 18.39-16.9 11.1-10.3 23.6-22.1 28.4-25.5 1.1-.8 1.7-.6 2.2-.4 2.5 1.3 4.2 6 4.3 10.2.1 8.1-4.5 20.4-8.6 31.2-3.7 9.8-6.8 18.3-6.8 23.6.1 8.9 9.5 13.6 18.3 13.5 7.6-.1 12.8-3.8 14.7-5.4.7-.6 2.3-2 4.4-4 28.7-26.1 45.09-39.4 48.79-39.4 3.1-.1 4.2.9 4.7 1.6.7 1 1 2.5 1 5 .1 17.3.7 29.1 7.3 35.5 3.8 3.8 9.4 5.4 17.5 5.3 13.2-.3 30.4-6.3 44.2-11.1 2.8-1 5.6-2 8.1-2.8 2.6-.9 5.2-1.8 7.9-2.6 10.5 14.5 31.39 23 56.29 23h.7c37-.3 70.3-20.6 97.79-43.4a543.7 543.7 0 0 0 30.9-27.9c4.3-4.1 8.4-9.4 13.2-13 1.2-.9 1.9-.7 2.4-.5 2.5 1.2 2.9 7.4 2.9 11.8v.8c-1.5 7.4-4 16.4-5.8 22.4-1 2.6-2 5.2-2.9 7.8-3.7 9.8-6.9 18.3-6.9 23.6 0 5.6 3.1 9.8 8.9 12.1 3.8 1.6 8.8 2.3 14.8 2.3 5.5 0 10.2-.5 14.3-1.3 5.2-1.1 9.4-11 14.4-23.8 1.7-4.3 3.2-8.3 4.3-10 .6-.9 1.2-1.8 1.89-2.6.9-1.1 1.8-2.3 2.5-3.6 8.7-14.9 38.1-40.5 52.9-40.5 2.7 0 5 1.4 7.7 3 3.3 2 7.1 4.3 12.6 4.3 1.8 0 3.9-.1 5.9-.3a68.9 68.9 0 0 0-7.6 31.4c0 15.3 5.9 27.7 17.1 36 9.99 7.4 23.79 11.2 39.89 11.2h.1c23 0 48.19-8 67.39-21.2 21.8-15 33.8-35.3 33.7-57-.3-15-5.4-29.1-14.8-39.5zM254.18 34c20.4 0 25.5 8.5 25.3 13.5-.9 26-69.5 53-124.5 64.2 23.1-39.6 62.5-77.7 99.2-77.7zm82.4 124.6c2.89-15.3 14.79-26.1 22.39-31 3.2-2.1 13.6-6.5 20.1-6.8 1.8-.1 3.3.2 4.3.9.4.3 1.8 1.2 1 4.8-2 9.8-16.6 18.7-22.1 22.1-7.2 4.4-14.7 8.1-24.5 9.8-.4.1-.8.1-1.2.2zm387.76-29.5c3.3-2.1 14.1-6.6 20.6-6.6 1.6 0 2.9.3 3.9.9.4.3 1.8 1.2 1 4.8-2 9.8-16.8 18.6-22.3 21.9-6.1 3.7-19.4 8-26.3 10.2 2.2-15.8 15.3-26.3 23.1-31.2zm356.77 47c-11.3 8.3-25.8 13-39.8 13-6.7 0-14.7-2.2-14.7-12.6 0-38.2 44.2-46.3 52.9-46.3 4.99 0 9.69 2 13.19 5.8 3.4 3.6 5.4 8.5 5.4 13.5 0 8.8-6.4 18.8-16.99 26.6z" fill-rule="evenodd">
        </path>
    </g>
    <defs>
        <clipPath class="clip0">
            <path d="M0 0h1140v280H0z">
            </path>
        </clipPath>
    </defs>
</svg>